<svg width="137" height="47" viewBox="0 0 137 47" fill="none" xmlns="http://www.w3.org/2000/svg">
<g filter="url(#filter0_d)">
<path d="M16.6866 38.4738H12.6553L10.6397 26.0195C10.4026 24.7331 9.51333 24.0315 7.91268 24.7916V38.5322H4V0.526245H8.74265C13.2482 0.526245 15.9159 2.33884 15.9159 7.07497V15.8456C15.9159 19.9385 13.5446 21.8096 10.4619 23.2129L10.5211 23.8561L13.7224 23.4468L16.6866 38.4738ZM7.97197 4.03449V23.3298L8.97978 22.9206C11.3511 21.9265 12.0032 20.8156 12.0032 18.9445V8.36133C12.0032 4.97002 11.0547 4.03449 8.44623 4.03449H7.97197Z" fill="black"/>
<path d="M24.6898 39C21.0735 39 19.0579 37.3628 19.0579 32.919V7.01649C19.0579 1.92954 21.9034 0 25.3419 0C29.0174 0 30.9738 1.63718 30.9738 6.08096V31.9835C30.9738 37.0705 28.1282 39 24.6898 39ZM24.9862 3.50825C23.3855 3.50825 23.0298 4.67766 23.0298 6.49026V31.1064C23.0298 34.8486 24.0969 35.4333 25.3419 35.4333C26.7054 35.4333 27.0018 34.2639 27.0018 32.4513V7.83508C27.0018 4.09295 26.0533 3.50825 24.9862 3.50825Z" fill="black"/>
<path d="M46.0316 7.07497V31.4573C46.0316 36.5442 42.4746 38.4738 38.2063 38.4738H38.0877H34.1157V0.526245H38.8584C43.4232 0.526245 46.0316 2.33884 46.0316 7.07497ZM42.1189 8.36133C42.1189 4.97002 41.1704 4.03449 38.562 4.03449H38.147V34.9071H38.9177C41.5261 34.9071 42.1189 33.7376 42.1189 31.925V8.36133Z" fill="black"/>
<path d="M56.7619 27.8321H52.79L52.0786 38.4738H47.3359L53.1457 5.78861L50.8929 0.526245H56.1098L62.5124 38.4738H58.0662L56.7619 27.8321ZM56.5841 26.7796L55.6356 19.2369L54.6278 8.82909H54.0349L52.8493 26.7796H56.5841Z" fill="black"/>
<path d="M76.0289 7.07497V31.4573C76.0289 36.5442 72.472 38.4738 68.2036 38.4738H68.085H64.113V0.526245H68.8557C73.4205 0.526245 76.0289 2.33884 76.0289 7.07497ZM72.057 8.36133C72.057 4.97002 71.1084 4.03449 68.5 4.03449H68.085V34.9071H68.8557C71.4641 34.9071 72.057 33.7376 72.057 31.925V8.36133Z" fill="black"/>
<path d="M86.7593 27.8321H82.7873L82.0759 38.4738H77.3333L83.143 5.78861L80.8902 0.526245H86.1072L92.5097 38.4738H88.0635L86.7593 27.8321ZM86.5814 26.7796L85.6329 19.2369L84.6251 8.82909H84.0322L82.8466 26.7796H86.5814Z" fill="black"/>
<path d="M114.326 11.3433H113.733L110.354 35.9011H109.168L104.781 11.3433H104.248L105.671 38.4738H101.521L102.054 0.526245H106.026L110.235 25.084H110.828L113.911 0.526245H117.231L117.764 38.4738H113.674L114.326 11.3433Z" fill="black"/>
<path d="M133 38.4738H128.554L126.835 29.7032L125.59 21.4588H125.115L123.456 38.5322H119.009L124.285 18.7107L119.246 0.584717H123.693L125.412 8.36133L126.657 15.0855H127.25L128.435 0.584717H132.882L127.902 17.8921L133 38.4738Z" fill="black"/>
</g>
<defs>
<filter id="filter0_d" x="0" y="0" width="137" height="47" filterUnits="userSpaceOnUse" color-interpolation-filters="sRGB">
<feFlood flood-opacity="0" result="BackgroundImageFix"/>
<feColorMatrix in="SourceAlpha" type="matrix" values="0 0 0 0 0 0 0 0 0 0 0 0 0 0 0 0 0 0 127 0" result="hardAlpha"/>
<feOffset dy="4"/>
<feGaussianBlur stdDeviation="2"/>
<feComposite in2="hardAlpha" operator="out"/>
<feColorMatrix type="matrix" values="0 0 0 0 0 0 0 0 0 0 0 0 0 0 0 0 0 0 0.25 0"/>
<feBlend mode="normal" in2="BackgroundImageFix" result="effect1_dropShadow"/>
<feBlend mode="normal" in="SourceGraphic" in2="effect1_dropShadow" result="shape"/>
</filter>
</defs>
</svg>
