<svg width="831" height="424" viewBox="0 0 831 424" fill="none" xmlns="http://www.w3.org/2000/svg">
<path d="M117.356 360.766H80.4311L61.7857 243.8C59.9578 231.738 51.549 225.159 36.5596 232.104V360.766H0V4.75183H43.8715C85.9151 4.75183 110.044 21.9311 110.044 66.1587V148.4C110.044 186.779 88.1087 204.324 59.9578 217.483L60.3234 223.331L89.9366 219.31L117.356 360.766ZM36.5596 38.0139V218.945L45.6995 214.924C67.6353 205.786 73.4848 194.821 73.4848 178.007V78.5863C73.4848 46.7863 64.7105 38.0139 40.2156 38.0139H36.5596Z" fill="#F7E287"/>
<path d="M228.497 328.966V360.766H139.292V4.75183H223.745V36.5518H175.852V167.773H210.583V178.373H175.852V328.966H228.497Z" fill="#F7E287"/>
<path d="M363.037 243.069V298.993C363.037 343.221 337.811 360.4 294.305 360.4H250.433V4.75183H294.305C333.424 4.75183 355.725 21.9311 355.725 66.1587V99.7863C355.725 137.435 336.348 155.71 310.391 168.869V173.621L342.929 170.697C357.919 181.662 363.037 209.441 363.037 243.069ZM286.993 38.0139V169.966L296.133 165.945C314.778 157.538 319.165 145.841 319.165 129.028V78.5863C319.165 46.7863 311.853 38.0139 291.015 38.0139H286.993ZM326.477 213.097C326.477 191.166 317.703 180.931 300.52 180.931C295.036 180.931 290.649 182.759 286.993 185.683V327.504H291.015C317.337 327.504 326.477 318.731 326.477 286.931V213.097Z" fill="#F7E287"/>
<path d="M463.576 260.614H427.016L420.801 360.4H376.93L430.672 53.7311L409.468 4.75183H457.726L517.319 360.4H476.372L463.576 260.614ZM462.113 251.11L453.339 180.2L444.199 82.607H438.715L428.113 250.745H462.113V251.11Z" fill="#F7E287"/>
<path d="M534.136 369.904V4.75183H570.695V292.779C570.695 368.807 522.071 424 484.415 424H473.812V381.6C482.587 385.621 495.383 388.545 510.738 388.545C524.996 388.545 534.136 384.524 534.136 369.904Z" fill="#F7E287"/>
<path d="M667.213 260.614H630.653L624.438 360.4H580.567L634.309 53.7309L613.47 4.38611H661.729L721.321 360.034H680.009L667.213 260.614ZM665.751 251.11L656.976 180.565L647.836 82.9723H642.353L631.75 251.11H665.751Z" fill="#F7E287"/>
<path d="M732.289 320.193C732.289 289.124 733.386 253.303 737.773 226.621H772.87C750.935 268.655 741.795 298.628 741.795 314.345C741.795 328.6 750.935 332.255 775.064 332.255C791.15 332.255 795.172 322.386 795.172 309.959C795.172 245.628 730.461 131.586 730.461 61.4069C730.461 17.9103 756.419 0 787.129 0C812.355 0 824.785 14.9862 824.785 45.3241C824.785 63.9655 824.785 100.883 819.301 134.145H787.129C809.064 81.1448 815.279 63.6 815.279 50.4414C815.279 37.2828 807.602 33.2621 787.129 33.2621C771.042 33.2621 767.021 43.131 767.021 55.5586C767.021 110.752 831.731 248.917 831.731 305.572C831.731 347.607 805.774 365.517 775.064 365.517C745.816 365.517 732.289 350.531 732.289 320.193Z" fill="#F7E287"/>
</svg>
